<mxfile host="65bd71144e">
    <diagram id="XtzhJJQyughjQursoWho" name="Page-1">
        <mxGraphModel dx="2801" dy="472" grid="0" gridSize="10" guides="1" tooltips="1" connect="1" arrows="1" fold="1" page="1" pageScale="1" pageWidth="850" pageHeight="1100" math="0" shadow="0">
            <root>
                <mxCell id="0"/>
                <mxCell id="1" parent="0"/>
                <mxCell id="362" value="" style="triangle;whiteSpace=wrap;html=1;rotation=-90;" parent="1" vertex="1">
                    <mxGeometry x="180" y="3208" width="472" height="662" as="geometry"/>
                </mxCell>
                <mxCell id="3" value="Transformations" style="shape=trapezoid;perimeter=trapezoidPerimeter;whiteSpace=wrap;html=1;fixedSize=1;size=50;" parent="1" vertex="1">
                    <mxGeometry x="259.5" y="1844.5" width="340" height="90" as="geometry"/>
                </mxCell>
                <mxCell id="4" value="" style="triangle;whiteSpace=wrap;html=1;rotation=-90;" parent="1" vertex="1">
                    <mxGeometry x="347.5" y="1624.5" width="155" height="200" as="geometry"/>
                </mxCell>
                <mxCell id="5" value="Data" style="shape=trapezoid;perimeter=trapezoidPerimeter;whiteSpace=wrap;html=1;fixedSize=1;size=50;" parent="1" vertex="1">
                    <mxGeometry x="189.5" y="1984.5" width="480" height="90" as="geometry"/>
                </mxCell>
                <mxCell id="6" value="User&lt;br&gt;and Business&lt;br&gt;Usecases" style="text;html=1;strokeColor=none;fillColor=none;align=center;verticalAlign=middle;whiteSpace=wrap;rounded=0;" parent="1" vertex="1">
                    <mxGeometry x="382.5" y="1744.5" width="85" height="30" as="geometry"/>
                </mxCell>
                <mxCell id="17" style="edgeStyle=none;html=1;exitX=0.75;exitY=0;exitDx=0;exitDy=0;entryX=0;entryY=0.75;entryDx=0;entryDy=0;" parent="1" source="8" target="9" edge="1">
                    <mxGeometry relative="1" as="geometry"/>
                </mxCell>
                <mxCell id="8" value="Transformations" style="shape=trapezoid;perimeter=trapezoidPerimeter;whiteSpace=wrap;html=1;fixedSize=1;size=50;" parent="1" vertex="1">
                    <mxGeometry x="254.5" y="2344.5" width="340" height="90" as="geometry"/>
                </mxCell>
                <mxCell id="9" value="" style="triangle;whiteSpace=wrap;html=1;rotation=-90;" parent="1" vertex="1">
                    <mxGeometry x="347.5" y="2124.5" width="155" height="200" as="geometry"/>
                </mxCell>
                <mxCell id="16" style="edgeStyle=none;html=1;exitX=0.75;exitY=0;exitDx=0;exitDy=0;entryX=0.75;entryY=1;entryDx=0;entryDy=0;" parent="1" source="10" target="8" edge="1">
                    <mxGeometry relative="1" as="geometry"/>
                </mxCell>
                <mxCell id="10" value="Data" style="shape=trapezoid;perimeter=trapezoidPerimeter;whiteSpace=wrap;html=1;fixedSize=1;size=50;" parent="1" vertex="1">
                    <mxGeometry x="184.5" y="2484.5" width="480" height="90" as="geometry"/>
                </mxCell>
                <mxCell id="11" value="User&lt;br&gt;and Business&lt;br&gt;Usecases" style="text;html=1;strokeColor=none;fillColor=none;align=center;verticalAlign=middle;whiteSpace=wrap;rounded=0;" parent="1" vertex="1">
                    <mxGeometry x="382.5" y="2244.5" width="85" height="30" as="geometry"/>
                </mxCell>
                <mxCell id="12" value="" style="endArrow=classic;html=1;exitX=0;exitY=0.25;exitDx=0;exitDy=0;entryX=0.25;entryY=0;entryDx=0;entryDy=0;" parent="1" source="9" target="8" edge="1">
                    <mxGeometry width="50" height="50" relative="1" as="geometry">
                        <mxPoint x="339.5" y="2414.5" as="sourcePoint"/>
                        <mxPoint x="389.5" y="2364.5" as="targetPoint"/>
                    </mxGeometry>
                </mxCell>
                <mxCell id="13" value="" style="endArrow=classic;html=1;exitX=0.25;exitY=1;exitDx=0;exitDy=0;entryX=0.25;entryY=0;entryDx=0;entryDy=0;" parent="1" source="8" target="10" edge="1">
                    <mxGeometry width="50" height="50" relative="1" as="geometry">
                        <mxPoint x="380" y="2312" as="sourcePoint"/>
                        <mxPoint x="349.5" y="2354.5" as="targetPoint"/>
                    </mxGeometry>
                </mxCell>
                <mxCell id="18" value="" style="shape=trapezoid;perimeter=trapezoidPerimeter;whiteSpace=wrap;html=1;fixedSize=1;size=50;" parent="1" vertex="1">
                    <mxGeometry x="255" y="290" width="340" height="90" as="geometry"/>
                </mxCell>
                <mxCell id="19" value="" style="triangle;whiteSpace=wrap;html=1;rotation=-90;" parent="1" vertex="1">
                    <mxGeometry x="343" y="70" width="155" height="200" as="geometry"/>
                </mxCell>
                <mxCell id="20" value="" style="shape=trapezoid;perimeter=trapezoidPerimeter;whiteSpace=wrap;html=1;fixedSize=1;size=50;" parent="1" vertex="1">
                    <mxGeometry x="185" y="430" width="480" height="90" as="geometry"/>
                </mxCell>
                <mxCell id="22" value="request" style="text;html=1;strokeColor=none;fillColor=none;align=center;verticalAlign=middle;whiteSpace=wrap;rounded=0;" parent="1" vertex="1">
                    <mxGeometry x="279.5" y="2314.5" width="60" height="30" as="geometry"/>
                </mxCell>
                <mxCell id="23" value="response" style="text;html=1;strokeColor=none;fillColor=none;align=center;verticalAlign=middle;whiteSpace=wrap;rounded=0;" parent="1" vertex="1">
                    <mxGeometry x="509.5" y="2314.5" width="60" height="30" as="geometry"/>
                </mxCell>
                <mxCell id="72" value="" style="ellipse;whiteSpace=wrap;html=1;aspect=fixed;" parent="1" vertex="1">
                    <mxGeometry x="-532" y="1270" width="80" height="80" as="geometry"/>
                </mxCell>
                <mxCell id="309" style="edgeStyle=none;html=1;endArrow=none;endFill=0;dashed=1;" parent="1" source="73" target="74" edge="1">
                    <mxGeometry relative="1" as="geometry"/>
                </mxCell>
                <mxCell id="310" style="edgeStyle=none;html=1;dashed=1;endArrow=none;endFill=0;" parent="1" source="73" target="72" edge="1">
                    <mxGeometry relative="1" as="geometry"/>
                </mxCell>
                <mxCell id="73" value="" style="ellipse;whiteSpace=wrap;html=1;aspect=fixed;" parent="1" vertex="1">
                    <mxGeometry x="-532" y="1430" width="80" height="80" as="geometry"/>
                </mxCell>
                <mxCell id="311" style="edgeStyle=none;html=1;dashed=1;endArrow=none;endFill=0;" parent="1" source="74" target="72" edge="1">
                    <mxGeometry relative="1" as="geometry"/>
                </mxCell>
                <mxCell id="74" value="" style="ellipse;whiteSpace=wrap;html=1;aspect=fixed;" parent="1" vertex="1">
                    <mxGeometry x="-397" y="1340" width="80" height="80" as="geometry"/>
                </mxCell>
                <mxCell id="98" style="edgeStyle=none;html=1;" parent="1" source="103" target="109" edge="1">
                    <mxGeometry relative="1" as="geometry"/>
                </mxCell>
                <mxCell id="99" style="edgeStyle=none;html=1;" parent="1" source="103" target="115" edge="1">
                    <mxGeometry relative="1" as="geometry"/>
                </mxCell>
                <mxCell id="100" style="edgeStyle=none;html=1;" parent="1" source="103" target="121" edge="1">
                    <mxGeometry relative="1" as="geometry"/>
                </mxCell>
                <mxCell id="101" style="edgeStyle=none;html=1;" parent="1" source="103" target="119" edge="1">
                    <mxGeometry relative="1" as="geometry"/>
                </mxCell>
                <mxCell id="102" style="edgeStyle=none;html=1;" parent="1" source="103" target="122" edge="1">
                    <mxGeometry relative="1" as="geometry"/>
                </mxCell>
                <mxCell id="103" value="" style="ellipse;whiteSpace=wrap;html=1;aspect=fixed;" parent="1" vertex="1">
                    <mxGeometry x="-525" y="2370" width="80" height="80" as="geometry"/>
                </mxCell>
                <mxCell id="104" style="edgeStyle=none;html=1;" parent="1" source="109" target="115" edge="1">
                    <mxGeometry relative="1" as="geometry"/>
                </mxCell>
                <mxCell id="105" style="edgeStyle=none;html=1;" parent="1" source="109" target="103" edge="1">
                    <mxGeometry relative="1" as="geometry"/>
                </mxCell>
                <mxCell id="106" style="edgeStyle=none;html=1;" parent="1" source="109" target="116" edge="1">
                    <mxGeometry relative="1" as="geometry"/>
                </mxCell>
                <mxCell id="107" style="edgeStyle=none;html=1;" parent="1" source="109" target="118" edge="1">
                    <mxGeometry relative="1" as="geometry"/>
                </mxCell>
                <mxCell id="108" style="edgeStyle=none;html=1;" parent="1" source="109" target="119" edge="1">
                    <mxGeometry relative="1" as="geometry"/>
                </mxCell>
                <mxCell id="109" value="" style="ellipse;whiteSpace=wrap;html=1;aspect=fixed;" parent="1" vertex="1">
                    <mxGeometry x="-525" y="2530" width="80" height="80" as="geometry"/>
                </mxCell>
                <mxCell id="110" style="edgeStyle=none;html=1;" parent="1" source="115" target="103" edge="1">
                    <mxGeometry relative="1" as="geometry"/>
                </mxCell>
                <mxCell id="111" style="edgeStyle=none;html=1;" parent="1" source="115" target="109" edge="1">
                    <mxGeometry relative="1" as="geometry"/>
                </mxCell>
                <mxCell id="112" style="edgeStyle=none;html=1;" parent="1" source="115" target="120" edge="1">
                    <mxGeometry relative="1" as="geometry"/>
                </mxCell>
                <mxCell id="113" style="edgeStyle=none;html=1;" parent="1" source="115" target="116" edge="1">
                    <mxGeometry relative="1" as="geometry"/>
                </mxCell>
                <mxCell id="114" style="edgeStyle=none;html=1;" parent="1" source="115" target="117" edge="1">
                    <mxGeometry relative="1" as="geometry">
                        <mxPoint x="-225" y="2440" as="targetPoint"/>
                    </mxGeometry>
                </mxCell>
                <mxCell id="115" value="" style="ellipse;whiteSpace=wrap;html=1;aspect=fixed;" parent="1" vertex="1">
                    <mxGeometry x="-390" y="2440" width="80" height="80" as="geometry"/>
                </mxCell>
                <mxCell id="116" value="Database" style="rounded=1;whiteSpace=wrap;html=1;" parent="1" vertex="1">
                    <mxGeometry x="-350" y="2630" width="120" height="60" as="geometry"/>
                </mxCell>
                <mxCell id="117" value="Api" style="rounded=1;whiteSpace=wrap;html=1;" parent="1" vertex="1">
                    <mxGeometry x="-265" y="2380" width="120" height="60" as="geometry"/>
                </mxCell>
                <mxCell id="118" value="App" style="rounded=1;whiteSpace=wrap;html=1;" parent="1" vertex="1">
                    <mxGeometry x="-705" y="2590" width="120" height="60" as="geometry"/>
                </mxCell>
                <mxCell id="119" value="Ext" style="rounded=1;whiteSpace=wrap;html=1;" parent="1" vertex="1">
                    <mxGeometry x="-715" y="2480" width="120" height="60" as="geometry"/>
                </mxCell>
                <mxCell id="120" value="Server" style="rounded=1;whiteSpace=wrap;html=1;" parent="1" vertex="1">
                    <mxGeometry x="-255" y="2510" width="120" height="60" as="geometry"/>
                </mxCell>
                <mxCell id="121" value="Design" style="rounded=1;whiteSpace=wrap;html=1;" parent="1" vertex="1">
                    <mxGeometry x="-685" y="2310" width="120" height="60" as="geometry"/>
                </mxCell>
                <mxCell id="122" value="Business" style="rounded=1;whiteSpace=wrap;html=1;" parent="1" vertex="1">
                    <mxGeometry x="-410" y="2270" width="120" height="60" as="geometry"/>
                </mxCell>
                <mxCell id="123" style="edgeStyle=none;html=1;" parent="1" source="128" target="134" edge="1">
                    <mxGeometry relative="1" as="geometry"/>
                </mxCell>
                <mxCell id="124" style="edgeStyle=none;html=1;" parent="1" source="128" target="140" edge="1">
                    <mxGeometry relative="1" as="geometry"/>
                </mxCell>
                <mxCell id="128" value="" style="ellipse;whiteSpace=wrap;html=1;aspect=fixed;" parent="1" vertex="1">
                    <mxGeometry x="-532" y="1830" width="80" height="80" as="geometry"/>
                </mxCell>
                <mxCell id="129" style="edgeStyle=none;html=1;" parent="1" source="134" target="140" edge="1">
                    <mxGeometry relative="1" as="geometry"/>
                </mxCell>
                <mxCell id="130" style="edgeStyle=none;html=1;" parent="1" source="134" target="128" edge="1">
                    <mxGeometry relative="1" as="geometry"/>
                </mxCell>
                <mxCell id="134" value="" style="ellipse;whiteSpace=wrap;html=1;aspect=fixed;" parent="1" vertex="1">
                    <mxGeometry x="-532" y="1990" width="80" height="80" as="geometry"/>
                </mxCell>
                <mxCell id="135" style="edgeStyle=none;html=1;" parent="1" source="140" target="128" edge="1">
                    <mxGeometry relative="1" as="geometry"/>
                </mxCell>
                <mxCell id="136" style="edgeStyle=none;html=1;" parent="1" source="140" target="134" edge="1">
                    <mxGeometry relative="1" as="geometry"/>
                </mxCell>
                <mxCell id="140" value="" style="ellipse;whiteSpace=wrap;html=1;aspect=fixed;" parent="1" vertex="1">
                    <mxGeometry x="-397" y="1900" width="80" height="80" as="geometry"/>
                </mxCell>
                <mxCell id="149" value="" style="rhombus;whiteSpace=wrap;html=1;" parent="1" vertex="1">
                    <mxGeometry x="-379" y="1360" width="45" height="40" as="geometry"/>
                </mxCell>
                <mxCell id="150" value="" style="triangle;whiteSpace=wrap;html=1;rotation=-90;" parent="1" vertex="1">
                    <mxGeometry x="-507" y="1450" width="30" height="40" as="geometry"/>
                </mxCell>
                <mxCell id="153" value="" style="shape=hexagon;perimeter=hexagonPerimeter2;whiteSpace=wrap;html=1;fixedSize=1;size=10;" parent="1" vertex="1">
                    <mxGeometry x="-512" y="1855" width="40" height="30" as="geometry"/>
                </mxCell>
                <mxCell id="155" value="" style="shape=hexagon;perimeter=hexagonPerimeter2;whiteSpace=wrap;html=1;fixedSize=1;size=10;" parent="1" vertex="1">
                    <mxGeometry x="-377" y="1925" width="40" height="30" as="geometry"/>
                </mxCell>
                <mxCell id="156" value="" style="shape=hexagon;perimeter=hexagonPerimeter2;whiteSpace=wrap;html=1;fixedSize=1;size=10;" parent="1" vertex="1">
                    <mxGeometry x="-512" y="2015" width="40" height="30" as="geometry"/>
                </mxCell>
                <mxCell id="157" value="" style="shape=step;perimeter=stepPerimeter;whiteSpace=wrap;html=1;fixedSize=1;" parent="1" vertex="1">
                    <mxGeometry x="-512" y="1300" width="50" height="20" as="geometry"/>
                </mxCell>
                <mxCell id="158" value="" style="shape=hexagon;perimeter=hexagonPerimeter2;whiteSpace=wrap;html=1;fixedSize=1;size=10;" parent="1" vertex="1">
                    <mxGeometry x="-505" y="2390" width="40" height="30" as="geometry"/>
                </mxCell>
                <mxCell id="159" value="" style="shape=hexagon;perimeter=hexagonPerimeter2;whiteSpace=wrap;html=1;fixedSize=1;size=10;" parent="1" vertex="1">
                    <mxGeometry x="-370" y="2460" width="40" height="30" as="geometry"/>
                </mxCell>
                <mxCell id="160" value="" style="shape=hexagon;perimeter=hexagonPerimeter2;whiteSpace=wrap;html=1;fixedSize=1;size=10;" parent="1" vertex="1">
                    <mxGeometry x="-505" y="2550" width="40" height="30" as="geometry"/>
                </mxCell>
                <mxCell id="191" style="edgeStyle=none;html=1;exitX=0.151;exitY=1.009;exitDx=0;exitDy=0;entryX=0.25;entryY=0;entryDx=0;entryDy=0;exitPerimeter=0;" parent="1" source="162" target="164" edge="1">
                    <mxGeometry relative="1" as="geometry"/>
                </mxCell>
                <mxCell id="193" style="edgeStyle=none;html=1;" parent="1" source="162" target="164" edge="1">
                    <mxGeometry relative="1" as="geometry"/>
                </mxCell>
                <mxCell id="196" style="edgeStyle=none;html=1;exitX=0.25;exitY=1;exitDx=0;exitDy=0;" parent="1" source="162" target="164" edge="1">
                    <mxGeometry relative="1" as="geometry"/>
                </mxCell>
                <mxCell id="197" style="edgeStyle=none;html=1;entryX=0.651;entryY=-0.007;entryDx=0;entryDy=0;entryPerimeter=0;" parent="1" source="162" target="164" edge="1">
                    <mxGeometry relative="1" as="geometry"/>
                </mxCell>
                <mxCell id="199" style="edgeStyle=none;html=1;entryX=0.75;entryY=0;entryDx=0;entryDy=0;exitX=0.75;exitY=1;exitDx=0;exitDy=0;" parent="1" source="162" target="164" edge="1">
                    <mxGeometry relative="1" as="geometry"/>
                </mxCell>
                <mxCell id="201" style="edgeStyle=none;html=1;entryX=0.891;entryY=-0.015;entryDx=0;entryDy=0;exitX=0.901;exitY=1.039;exitDx=0;exitDy=0;exitPerimeter=0;entryPerimeter=0;" parent="1" source="162" target="164" edge="1">
                    <mxGeometry relative="1" as="geometry"/>
                </mxCell>
                <mxCell id="204" style="edgeStyle=none;html=1;entryX=0;entryY=0.25;entryDx=0;entryDy=0;" parent="1" source="162" target="163" edge="1">
                    <mxGeometry relative="1" as="geometry"/>
                </mxCell>
                <mxCell id="206" style="edgeStyle=none;html=1;entryX=0;entryY=0.75;entryDx=0;entryDy=0;" parent="1" source="162" target="163" edge="1">
                    <mxGeometry relative="1" as="geometry"/>
                </mxCell>
                <mxCell id="162" value="" style="shape=trapezoid;perimeter=trapezoidPerimeter;whiteSpace=wrap;html=1;fixedSize=1;size=50;" parent="1" vertex="1">
                    <mxGeometry x="250" y="2925.5" width="340" height="90" as="geometry"/>
                </mxCell>
                <mxCell id="203" style="edgeStyle=none;html=1;entryX=0.25;entryY=0;entryDx=0;entryDy=0;" parent="1" source="163" target="162" edge="1">
                    <mxGeometry relative="1" as="geometry"/>
                </mxCell>
                <mxCell id="205" style="edgeStyle=none;html=1;entryX=0.119;entryY=-0.088;entryDx=0;entryDy=0;entryPerimeter=0;" parent="1" source="163" target="169" edge="1">
                    <mxGeometry relative="1" as="geometry"/>
                </mxCell>
                <mxCell id="163" value="" style="triangle;whiteSpace=wrap;html=1;rotation=-90;" parent="1" vertex="1">
                    <mxGeometry x="338" y="2705.5" width="155" height="200" as="geometry"/>
                </mxCell>
                <mxCell id="190" style="edgeStyle=none;html=1;exitX=0.104;exitY=-0.007;exitDx=0;exitDy=0;exitPerimeter=0;entryX=0.133;entryY=1.032;entryDx=0;entryDy=0;entryPerimeter=0;" parent="1" source="164" target="162" edge="1">
                    <mxGeometry relative="1" as="geometry">
                        <mxPoint x="335" y="3015.5" as="targetPoint"/>
                    </mxGeometry>
                </mxCell>
                <mxCell id="192" style="edgeStyle=none;html=1;entryX=0.5;entryY=1;entryDx=0;entryDy=0;exitX=0.418;exitY=0.032;exitDx=0;exitDy=0;exitPerimeter=0;" parent="1" source="164" target="162" edge="1">
                    <mxGeometry relative="1" as="geometry"/>
                </mxCell>
                <mxCell id="194" style="edgeStyle=none;html=1;exitX=0.5;exitY=0;exitDx=0;exitDy=0;entryX=0.596;entryY=0.985;entryDx=0;entryDy=0;entryPerimeter=0;" parent="1" source="164" target="162" edge="1">
                    <mxGeometry relative="1" as="geometry">
                        <mxPoint x="477" y="3019.5" as="targetPoint"/>
                    </mxGeometry>
                </mxCell>
                <mxCell id="195" style="edgeStyle=none;html=1;entryX=0.25;entryY=1;entryDx=0;entryDy=0;exitX=0.25;exitY=0;exitDx=0;exitDy=0;" parent="1" source="164" target="162" edge="1">
                    <mxGeometry relative="1" as="geometry"/>
                </mxCell>
                <mxCell id="198" style="edgeStyle=none;html=1;entryX=0.75;entryY=1;entryDx=0;entryDy=0;exitX=0.648;exitY=-0.015;exitDx=0;exitDy=0;exitPerimeter=0;" parent="1" source="164" target="162" edge="1">
                    <mxGeometry relative="1" as="geometry"/>
                </mxCell>
                <mxCell id="200" style="edgeStyle=none;html=1;exitX=0.75;exitY=0;exitDx=0;exitDy=0;" parent="1" source="164" edge="1">
                    <mxGeometry relative="1" as="geometry">
                        <mxPoint x="555" y="3015.5" as="targetPoint"/>
                    </mxGeometry>
                </mxCell>
                <mxCell id="202" style="edgeStyle=none;html=1;entryX=1;entryY=1;entryDx=0;entryDy=0;exitX=1;exitY=0;exitDx=0;exitDy=0;" parent="1" source="164" target="162" edge="1">
                    <mxGeometry relative="1" as="geometry"/>
                </mxCell>
                <mxCell id="164" value="" style="shape=trapezoid;perimeter=trapezoidPerimeter;whiteSpace=wrap;html=1;fixedSize=1;size=50;" parent="1" vertex="1">
                    <mxGeometry x="180" y="3065.5" width="480" height="90" as="geometry"/>
                </mxCell>
                <mxCell id="166" value="&lt;h1&gt;Step 1&lt;/h1&gt;&lt;p&gt;Specify Usecases&lt;/p&gt;" style="text;html=1;strokeColor=none;fillColor=none;spacing=5;spacingTop=-20;whiteSpace=wrap;overflow=hidden;rounded=0;align=center;" parent="1" vertex="1">
                    <mxGeometry x="358" y="2805.5" width="115" height="70" as="geometry"/>
                </mxCell>
                <mxCell id="167" value="&lt;h1&gt;Step 2&lt;/h1&gt;&lt;p&gt;Imagine API&lt;/p&gt;" style="text;html=1;strokeColor=none;fillColor=none;spacing=5;spacingTop=-20;whiteSpace=wrap;overflow=hidden;rounded=0;align=center;" parent="1" vertex="1">
                    <mxGeometry x="300" y="2930.5" width="115" height="75" as="geometry"/>
                </mxCell>
                <mxCell id="168" value="&lt;h1&gt;Step 3&lt;/h1&gt;&lt;div&gt;Data Model&lt;/div&gt;" style="text;html=1;strokeColor=none;fillColor=none;spacing=5;spacingTop=-20;whiteSpace=wrap;overflow=hidden;rounded=0;align=center;" parent="1" vertex="1">
                    <mxGeometry x="230" y="3070.5" width="115" height="80" as="geometry"/>
                </mxCell>
                <mxCell id="169" value="&lt;h1&gt;Step A&lt;/h1&gt;&lt;p&gt;Transformations&lt;/p&gt;" style="text;html=1;strokeColor=none;fillColor=none;spacing=5;spacingTop=-20;whiteSpace=wrap;overflow=hidden;rounded=0;align=center;" parent="1" vertex="1">
                    <mxGeometry x="430" y="2930.5" width="115" height="75" as="geometry"/>
                </mxCell>
                <mxCell id="170" value="&lt;h1&gt;Step B&lt;/h1&gt;&lt;p&gt;reimagine data model&lt;/p&gt;" style="text;html=1;strokeColor=none;fillColor=none;spacing=5;spacingTop=-20;whiteSpace=wrap;overflow=hidden;rounded=0;align=center;" parent="1" vertex="1">
                    <mxGeometry x="475" y="3070.5" width="125" height="80" as="geometry"/>
                </mxCell>
                <mxCell id="189" value="" style="endArrow=classic;html=1;entryX=0.101;entryY=-0.038;entryDx=0;entryDy=0;entryPerimeter=0;exitX=0;exitY=1;exitDx=0;exitDy=0;" parent="1" source="162" target="164" edge="1">
                    <mxGeometry width="50" height="50" relative="1" as="geometry">
                        <mxPoint x="235" y="2955.5" as="sourcePoint"/>
                        <mxPoint x="285" y="2905.5" as="targetPoint"/>
                    </mxGeometry>
                </mxCell>
                <mxCell id="312" style="edgeStyle=none;html=1;endArrow=classic;endFill=1;" parent="1" source="302" target="313" edge="1">
                    <mxGeometry relative="1" as="geometry">
                        <mxPoint x="-417.5" y="280" as="targetPoint"/>
                    </mxGeometry>
                </mxCell>
                <mxCell id="302" value="&lt;h1&gt;Conway's Law&lt;/h1&gt;&lt;p&gt;An organization that designs a system (defined broadly) will produce a design whose structure is a copy of the organization's communication structure.&lt;/p&gt;" style="text;html=1;strokeColor=#314354;fillColor=#647687;spacing=5;spacingTop=-20;whiteSpace=wrap;overflow=hidden;rounded=0;glass=0;shadow=0;sketch=0;dashed=1;dashPattern=1 1;fontColor=#ffffff;opacity=25;" parent="1" vertex="1">
                    <mxGeometry x="-582" y="30" width="315" height="110" as="geometry"/>
                </mxCell>
                <mxCell id="313" value="&lt;h1&gt;Collaborate First&lt;/h1&gt;&lt;p&gt;then build&lt;/p&gt;&lt;p&gt;then collaborate again&lt;/p&gt;" style="text;html=1;strokeColor=#314354;fillColor=#647687;spacing=5;spacingTop=-20;whiteSpace=wrap;overflow=hidden;rounded=0;glass=0;shadow=0;sketch=0;dashed=1;dashPattern=1 1;fontColor=#ffffff;opacity=25;align=center;" parent="1" vertex="1">
                    <mxGeometry x="-582" y="780" width="315" height="110" as="geometry"/>
                </mxCell>
                <mxCell id="343" value="How are you going to get it?" style="shape=trapezoid;perimeter=trapezoidPerimeter;whiteSpace=wrap;html=1;fixedSize=1;size=50;" parent="1" vertex="1">
                    <mxGeometry x="255" y="825" width="340" height="90" as="geometry"/>
                </mxCell>
                <mxCell id="344" value="" style="triangle;whiteSpace=wrap;html=1;rotation=-90;" parent="1" vertex="1">
                    <mxGeometry x="343" y="605" width="155" height="200" as="geometry"/>
                </mxCell>
                <mxCell id="345" value="(Given what you got)&lt;br&gt;(and given how the world is)&lt;br&gt;(and how it works)&lt;br&gt;(given that you don't really know how it works...&lt;br&gt;or what it is...,&lt;br&gt;or anything really...)" style="shape=trapezoid;perimeter=trapezoidPerimeter;whiteSpace=wrap;html=1;fixedSize=1;size=50;" parent="1" vertex="1">
                    <mxGeometry x="185" y="965" width="480" height="90" as="geometry"/>
                </mxCell>
                <mxCell id="348" value="What do you want?" style="text;html=1;strokeColor=none;fillColor=none;align=center;verticalAlign=middle;whiteSpace=wrap;rounded=0;" parent="1" vertex="1">
                    <mxGeometry x="377.5" y="732" width="85" height="30" as="geometry"/>
                </mxCell>
                <mxCell id="349" value="Behavior" style="shape=trapezoid;perimeter=trapezoidPerimeter;whiteSpace=wrap;html=1;fixedSize=1;size=50;" parent="1" vertex="1">
                    <mxGeometry x="255" y="1355" width="340" height="90" as="geometry"/>
                </mxCell>
                <mxCell id="350" value="" style="triangle;whiteSpace=wrap;html=1;rotation=-90;" parent="1" vertex="1">
                    <mxGeometry x="343" y="1135" width="155" height="200" as="geometry"/>
                </mxCell>
                <mxCell id="351" value="State" style="shape=trapezoid;perimeter=trapezoidPerimeter;whiteSpace=wrap;html=1;fixedSize=1;size=50;" parent="1" vertex="1">
                    <mxGeometry x="185" y="1495" width="480" height="90" as="geometry"/>
                </mxCell>
                <mxCell id="352" value="Vision" style="text;html=1;strokeColor=none;fillColor=none;align=center;verticalAlign=middle;whiteSpace=wrap;rounded=0;" parent="1" vertex="1">
                    <mxGeometry x="377.5" y="1262" width="85" height="30" as="geometry"/>
                </mxCell>
                <mxCell id="353" value="2 of 1:&lt;br&gt;specifics per domain&lt;br&gt;features&lt;br&gt;" style="shape=trapezoid;perimeter=trapezoidPerimeter;whiteSpace=wrap;html=1;fixedSize=1;size=50;" parent="1" vertex="1">
                    <mxGeometry x="250.5" y="3533" width="340" height="90" as="geometry"/>
                </mxCell>
                <mxCell id="354" value="" style="triangle;whiteSpace=wrap;html=1;rotation=-90;" parent="1" vertex="1">
                    <mxGeometry x="338.5" y="3313" width="155" height="200" as="geometry"/>
                </mxCell>
                <mxCell id="355" value="3 of 1" style="shape=trapezoid;perimeter=trapezoidPerimeter;whiteSpace=wrap;html=1;fixedSize=1;size=50;" parent="1" vertex="1">
                    <mxGeometry x="180.5" y="3673" width="480" height="90" as="geometry"/>
                </mxCell>
                <mxCell id="356" value="step 1 of 1:&lt;br&gt;domains of usecases" style="text;html=1;strokeColor=none;fillColor=none;align=center;verticalAlign=middle;whiteSpace=wrap;rounded=0;" parent="1" vertex="1">
                    <mxGeometry x="373.5" y="3433" width="85" height="30" as="geometry"/>
                </mxCell>
                <mxCell id="360" value="domain - Mission:&lt;br&gt;participating replace evolve the legacy financial system.&lt;br&gt;crypto improvement&lt;br&gt;utxo chains with aditional abilities (with a focus on ravencoin and evrmore currently)&lt;br&gt;&lt;br&gt;users:&lt;br&gt;enterprise, individuals&lt;br&gt;&lt;br&gt;products&lt;br&gt;App,&lt;br&gt;&lt;br&gt;browser extension [login, authentication, integration via perimission api (see EIP)] , desktop app (qt?), &lt;br&gt;&lt;br&gt;b2b (whitelabeling? ipfs services? block cipher? business-level api backend? extensibility enterprise security token?),&lt;br&gt;&lt;br&gt;decentralized swaps/exchange (decentralized gambling, etc)." style="text;html=1;strokeColor=none;fillColor=none;align=left;verticalAlign=middle;whiteSpace=wrap;rounded=0;" parent="1" vertex="1">
                    <mxGeometry x="90.75" y="3896" width="657.5" height="278" as="geometry"/>
                </mxCell>
                <mxCell id="361" value="subdomains:&lt;br&gt;&lt;br&gt;App (seciotns, wallet, manage, swap)&lt;br&gt;browser etension (all of app subdomains, plus integration with other stuff)&lt;br&gt;&lt;br&gt;Integration could be domain and ways of integration could be the subdomains." style="text;html=1;strokeColor=none;fillColor=none;align=left;verticalAlign=middle;whiteSpace=wrap;rounded=0;" parent="1" vertex="1">
                    <mxGeometry x="78" y="4194" width="614" height="129" as="geometry"/>
                </mxCell>
            </root>
        </mxGraphModel>
    </diagram>
</mxfile>